<mxfile host="65bd71144e">
    <diagram id="cYaFUZmR4RDZbVrK7cvw" name="Page-1">
        <mxGraphModel dx="2073" dy="1968" grid="1" gridSize="10" guides="1" tooltips="1" connect="1" arrows="1" fold="1" page="1" pageScale="1" pageWidth="827" pageHeight="1169" math="0" shadow="0">
            <root>
                <mxCell id="0"/>
                <mxCell id="1" parent="0"/>
                <mxCell id="7" value="" style="edgeStyle=none;html=1;startArrow=none;" parent="1" source="8" target="6" edge="1">
                    <mxGeometry relative="1" as="geometry"/>
                </mxCell>
                <mxCell id="2" value="RECEBER VALORES" style="shape=parallelogram;perimeter=parallelogramPerimeter;whiteSpace=wrap;html=1;fixedSize=1;" parent="1" vertex="1">
                    <mxGeometry x="70" y="247" width="160" height="40" as="geometry"/>
                </mxCell>
                <mxCell id="5" value="" style="edgeStyle=none;html=1;" parent="1" source="3" target="2" edge="1">
                    <mxGeometry relative="1" as="geometry"/>
                </mxCell>
                <mxCell id="3" value="INICIO" style="rounded=0;whiteSpace=wrap;html=1;" parent="1" vertex="1">
                    <mxGeometry x="90" y="147" width="120" height="40" as="geometry"/>
                </mxCell>
                <mxCell id="11" value="" style="edgeStyle=none;html=1;fontColor=#000000;" parent="1" source="6" target="10" edge="1">
                    <mxGeometry relative="1" as="geometry"/>
                </mxCell>
                <mxCell id="6" value="SOMAR VALORES" style="whiteSpace=wrap;html=1;" parent="1" vertex="1">
                    <mxGeometry x="75" y="407" width="151" height="49" as="geometry"/>
                </mxCell>
                <mxCell id="9" value="" style="edgeStyle=none;html=1;endArrow=none;" parent="1" source="2" target="8" edge="1">
                    <mxGeometry relative="1" as="geometry">
                        <mxPoint x="150.06079027355622" y="287" as="sourcePoint"/>
                        <mxPoint x="150.42553191489355" y="407" as="targetPoint"/>
                    </mxGeometry>
                </mxCell>
                <mxCell id="8" value="A; B" style="shape=parallelogram;perimeter=parallelogramPerimeter;whiteSpace=wrap;html=1;fixedSize=1;" parent="1" vertex="1">
                    <mxGeometry x="80" y="327" width="139" height="36" as="geometry"/>
                </mxCell>
                <mxCell id="13" value="" style="edgeStyle=none;html=1;fontColor=#000000;" parent="1" source="10" target="12" edge="1">
                    <mxGeometry relative="1" as="geometry"/>
                </mxCell>
                <mxCell id="10" value="SAÍDA" style="shape=parallelogram;perimeter=parallelogramPerimeter;whiteSpace=wrap;html=1;fixedSize=1;" parent="1" vertex="1">
                    <mxGeometry x="73.5" y="517" width="152.5" height="36.5" as="geometry"/>
                </mxCell>
                <mxCell id="12" value="FIM" style="whiteSpace=wrap;html=1;" parent="1" vertex="1">
                    <mxGeometry x="89.75" y="621.75" width="120" height="45.25" as="geometry"/>
                </mxCell>
                <mxCell id="16" value="" style="edgeStyle=none;html=1;startArrow=none;" parent="1" source="23" target="21" edge="1">
                    <mxGeometry relative="1" as="geometry"/>
                </mxCell>
                <mxCell id="17" value="RECEBER VALORES" style="shape=parallelogram;perimeter=parallelogramPerimeter;whiteSpace=wrap;html=1;fixedSize=1;" parent="1" vertex="1">
                    <mxGeometry x="464.5" y="242.38" width="160" height="40" as="geometry"/>
                </mxCell>
                <mxCell id="18" value="" style="edgeStyle=none;html=1;" parent="1" source="19" target="17" edge="1">
                    <mxGeometry relative="1" as="geometry"/>
                </mxCell>
                <mxCell id="19" value="INICIO" style="rounded=0;whiteSpace=wrap;html=1;" parent="1" vertex="1">
                    <mxGeometry x="484.5" y="142.38" width="120" height="40" as="geometry"/>
                </mxCell>
                <mxCell id="30" value="" style="edgeStyle=none;html=1;fontColor=#FFFFFF;" parent="1" source="21" target="29" edge="1">
                    <mxGeometry relative="1" as="geometry"/>
                </mxCell>
                <mxCell id="21" value="CALCULAR MÉDIA" style="whiteSpace=wrap;html=1;" parent="1" vertex="1">
                    <mxGeometry x="469.5" y="402.38" width="151" height="49" as="geometry"/>
                </mxCell>
                <mxCell id="22" value="" style="edgeStyle=none;html=1;endArrow=none;" parent="1" source="17" target="23" edge="1">
                    <mxGeometry relative="1" as="geometry">
                        <mxPoint x="544.5607902735562" y="282.38" as="sourcePoint"/>
                        <mxPoint x="544.9255319148936" y="402.38" as="targetPoint"/>
                    </mxGeometry>
                </mxCell>
                <mxCell id="23" value="VALOR 1; VALOR 2" style="shape=parallelogram;perimeter=parallelogramPerimeter;whiteSpace=wrap;html=1;fixedSize=1;" parent="1" vertex="1">
                    <mxGeometry x="474.5" y="322.38" width="139" height="36" as="geometry"/>
                </mxCell>
                <mxCell id="38" value="" style="edgeStyle=none;html=1;fontColor=#FFFFFF;" parent="1" source="25" target="37" edge="1">
                    <mxGeometry relative="1" as="geometry"/>
                </mxCell>
                <mxCell id="25" value="SAÍDA" style="shape=parallelogram;perimeter=parallelogramPerimeter;whiteSpace=wrap;html=1;fixedSize=1;" parent="1" vertex="1">
                    <mxGeometry x="468" y="582.38" width="152.5" height="36.5" as="geometry"/>
                </mxCell>
                <mxCell id="26" value="FIM" style="whiteSpace=wrap;html=1;" parent="1" vertex="1">
                    <mxGeometry x="484.25" y="742.38" width="120" height="45.25" as="geometry"/>
                </mxCell>
                <mxCell id="31" value="" style="edgeStyle=none;html=1;fontColor=#000000;endArrow=none;" parent="1" source="21" target="29" edge="1">
                    <mxGeometry relative="1" as="geometry">
                        <mxPoint x="544.8942446043166" y="451.38" as="sourcePoint"/>
                        <mxPoint x="544.3287769784172" y="582.38" as="targetPoint"/>
                    </mxGeometry>
                </mxCell>
                <mxCell id="32" style="edgeStyle=none;html=1;entryX=0.5;entryY=0;entryDx=0;entryDy=0;fontColor=#FFFFFF;" parent="1" source="29" target="25" edge="1">
                    <mxGeometry relative="1" as="geometry"/>
                </mxCell>
                <mxCell id="29" value="VALOR 1 + VALOR 2/2" style="shape=parallelogram;perimeter=parallelogramPerimeter;whiteSpace=wrap;html=1;fixedSize=1;" parent="1" vertex="1">
                    <mxGeometry x="454" y="482.38" width="180" height="50" as="geometry"/>
                </mxCell>
                <mxCell id="40" style="edgeStyle=none;html=1;exitX=0.5;exitY=1;exitDx=0;exitDy=0;fontColor=#FFFFFF;" parent="1" source="37" target="26" edge="1">
                    <mxGeometry relative="1" as="geometry"/>
                </mxCell>
                <mxCell id="37" value="ESCREVER RESULTADO" style="whiteSpace=wrap;html=1;" parent="1" vertex="1">
                    <mxGeometry x="485" y="652.38" width="120" height="60" as="geometry"/>
                </mxCell>
                <mxCell id="466" value="" style="edgeStyle=none;html=1;startArrow=none;" parent="1" source="473" target="471" edge="1">
                    <mxGeometry relative="1" as="geometry"/>
                </mxCell>
                <mxCell id="467" value="RECEBER NOTAS" style="shape=parallelogram;perimeter=parallelogramPerimeter;whiteSpace=wrap;html=1;fixedSize=1;" parent="1" vertex="1">
                    <mxGeometry x="1580.5" y="242.38" width="160" height="40" as="geometry"/>
                </mxCell>
                <mxCell id="468" value="" style="edgeStyle=none;html=1;" parent="1" source="469" target="467" edge="1">
                    <mxGeometry relative="1" as="geometry"/>
                </mxCell>
                <mxCell id="469" value="INICIO" style="rounded=0;whiteSpace=wrap;html=1;" parent="1" vertex="1">
                    <mxGeometry x="1600.5" y="142.38" width="120" height="40" as="geometry"/>
                </mxCell>
                <mxCell id="470" value="" style="edgeStyle=none;html=1;fontColor=#FFFFFF;" parent="1" source="471" target="479" edge="1">
                    <mxGeometry relative="1" as="geometry"/>
                </mxCell>
                <mxCell id="471" value="CALCULAR MÉDIA" style="whiteSpace=wrap;html=1;" parent="1" vertex="1">
                    <mxGeometry x="1585.5" y="402.38" width="151" height="49" as="geometry"/>
                </mxCell>
                <mxCell id="472" value="" style="edgeStyle=none;html=1;endArrow=none;" parent="1" source="467" target="473" edge="1">
                    <mxGeometry relative="1" as="geometry">
                        <mxPoint x="1660.5607902735564" y="282.38" as="sourcePoint"/>
                        <mxPoint x="1660.9255319148933" y="402.38" as="targetPoint"/>
                    </mxGeometry>
                </mxCell>
                <mxCell id="473" value="VALOR 1; VALOR; VALOR 3" style="shape=parallelogram;perimeter=parallelogramPerimeter;whiteSpace=wrap;html=1;fixedSize=1;" parent="1" vertex="1">
                    <mxGeometry x="1550" y="318.38" width="220" height="44" as="geometry"/>
                </mxCell>
                <mxCell id="474" value="" style="edgeStyle=none;html=1;fontColor=#FFFFFF;" parent="1" source="475" target="481" edge="1">
                    <mxGeometry relative="1" as="geometry"/>
                </mxCell>
                <mxCell id="475" value="SAÍDA" style="shape=parallelogram;perimeter=parallelogramPerimeter;whiteSpace=wrap;html=1;fixedSize=1;" parent="1" vertex="1">
                    <mxGeometry x="1580.5" y="812.38" width="152.5" height="36.5" as="geometry"/>
                </mxCell>
                <mxCell id="476" value="FIM" style="whiteSpace=wrap;html=1;" parent="1" vertex="1">
                    <mxGeometry x="1596.75" y="972.38" width="120" height="45.25" as="geometry"/>
                </mxCell>
                <mxCell id="477" value="" style="edgeStyle=none;html=1;fontColor=#000000;endArrow=none;" parent="1" source="471" target="479" edge="1">
                    <mxGeometry relative="1" as="geometry">
                        <mxPoint x="1660.8942446043166" y="451.38" as="sourcePoint"/>
                        <mxPoint x="1660.3287769784174" y="582.38" as="targetPoint"/>
                    </mxGeometry>
                </mxCell>
                <mxCell id="486" value="" style="edgeStyle=none;html=1;fontColor=#FFFFFF;" parent="1" source="479" target="485" edge="1">
                    <mxGeometry relative="1" as="geometry"/>
                </mxCell>
                <mxCell id="479" value="VALOR 1 + VALOR 2 + VALOR 3/2" style="shape=parallelogram;perimeter=parallelogramPerimeter;whiteSpace=wrap;html=1;fixedSize=1;" parent="1" vertex="1">
                    <mxGeometry x="1540" y="482.38" width="240" height="50" as="geometry"/>
                </mxCell>
                <mxCell id="480" style="edgeStyle=none;html=1;exitX=0.5;exitY=1;exitDx=0;exitDy=0;fontColor=#FFFFFF;" parent="1" source="481" target="476" edge="1">
                    <mxGeometry relative="1" as="geometry"/>
                </mxCell>
                <mxCell id="481" value="ESCREVER RESULTADO" style="whiteSpace=wrap;html=1;" parent="1" vertex="1">
                    <mxGeometry x="1597.5" y="882.38" width="120" height="60" as="geometry"/>
                </mxCell>
                <mxCell id="488" value="" style="edgeStyle=none;html=1;fontColor=#FFFFFF;" parent="1" source="485" target="487" edge="1">
                    <mxGeometry relative="1" as="geometry"/>
                </mxCell>
                <mxCell id="490" value="" style="edgeStyle=none;html=1;fontColor=#FFFFFF;" parent="1" source="485" target="489" edge="1">
                    <mxGeometry relative="1" as="geometry"/>
                </mxCell>
                <mxCell id="485" value="" style="rhombus;whiteSpace=wrap;html=1;" parent="1" vertex="1">
                    <mxGeometry x="1620" y="562.38" width="80" height="80" as="geometry"/>
                </mxCell>
                <mxCell id="500" value="" style="edgeStyle=none;html=1;fontColor=#FFFFFF;" parent="1" source="487" target="499" edge="1">
                    <mxGeometry relative="1" as="geometry"/>
                </mxCell>
                <mxCell id="487" value="&amp;lt;7" style="shape=parallelogram;perimeter=parallelogramPerimeter;whiteSpace=wrap;html=1;fixedSize=1;" parent="1" vertex="1">
                    <mxGeometry x="1741" y="582.38" width="139" height="40" as="geometry"/>
                </mxCell>
                <mxCell id="498" value="" style="edgeStyle=none;html=1;fontColor=#FFFFFF;" parent="1" source="489" target="497" edge="1">
                    <mxGeometry relative="1" as="geometry"/>
                </mxCell>
                <mxCell id="489" value="&amp;gt;7" style="shape=parallelogram;perimeter=parallelogramPerimeter;whiteSpace=wrap;html=1;fixedSize=1;" parent="1" vertex="1">
                    <mxGeometry x="1430" y="582.38" width="140" height="40" as="geometry"/>
                </mxCell>
                <mxCell id="501" style="edgeStyle=none;html=1;exitX=0.5;exitY=1;exitDx=0;exitDy=0;entryX=0;entryY=0.25;entryDx=0;entryDy=0;fontColor=#FFFFFF;" parent="1" source="497" target="475" edge="1">
                    <mxGeometry relative="1" as="geometry"/>
                </mxCell>
                <mxCell id="497" value="APROVADO" style="whiteSpace=wrap;html=1;" parent="1" vertex="1">
                    <mxGeometry x="1450" y="682.38" width="100" height="40" as="geometry"/>
                </mxCell>
                <mxCell id="502" style="edgeStyle=none;html=1;exitX=0.5;exitY=1;exitDx=0;exitDy=0;entryX=1;entryY=0.25;entryDx=0;entryDy=0;fontColor=#FFFFFF;" parent="1" source="499" target="475" edge="1">
                    <mxGeometry relative="1" as="geometry"/>
                </mxCell>
                <mxCell id="499" value="REPROVADO" style="whiteSpace=wrap;html=1;" parent="1" vertex="1">
                    <mxGeometry x="1750" y="682.38" width="121" height="40" as="geometry"/>
                </mxCell>
                <mxCell id="530" value="&lt;h1&gt;Exercício 1&lt;/h1&gt;" style="text;html=1;strokeColor=none;fillColor=none;spacing=5;spacingTop=-20;whiteSpace=wrap;overflow=hidden;rounded=0;fontColor=#FFFFFF;align=center;" parent="1" vertex="1">
                    <mxGeometry x="55.5" y="80" width="190" height="40" as="geometry"/>
                </mxCell>
                <mxCell id="531" value="&lt;h1&gt;Exercício 2&lt;/h1&gt;" style="text;html=1;strokeColor=none;fillColor=none;spacing=5;spacingTop=-20;whiteSpace=wrap;overflow=hidden;rounded=0;fontColor=#FFFFFF;align=center;" parent="1" vertex="1">
                    <mxGeometry x="450" y="75.38" width="190" height="40" as="geometry"/>
                </mxCell>
                <mxCell id="532" value="&lt;h1&gt;Exercício 4&lt;/h1&gt;&lt;div&gt;&amp;nbsp;&lt;/div&gt;" style="text;html=1;strokeColor=none;fillColor=none;spacing=5;spacingTop=-20;whiteSpace=wrap;overflow=hidden;rounded=0;fontColor=#FFFFFF;align=center;" parent="1" vertex="1">
                    <mxGeometry x="1565.5" y="75.38" width="190" height="40" as="geometry"/>
                </mxCell>
                <mxCell id="533" value="" style="edgeStyle=none;html=1;startArrow=none;" parent="1" source="540" target="538" edge="1">
                    <mxGeometry relative="1" as="geometry"/>
                </mxCell>
                <mxCell id="534" value="RECEBER VALORES" style="shape=parallelogram;perimeter=parallelogramPerimeter;whiteSpace=wrap;html=1;fixedSize=1;" parent="1" vertex="1">
                    <mxGeometry x="904.5" y="247" width="160" height="40" as="geometry"/>
                </mxCell>
                <mxCell id="535" value="" style="edgeStyle=none;html=1;" parent="1" source="536" target="534" edge="1">
                    <mxGeometry relative="1" as="geometry"/>
                </mxCell>
                <mxCell id="536" value="INICIO" style="rounded=0;whiteSpace=wrap;html=1;" parent="1" vertex="1">
                    <mxGeometry x="924.5" y="147" width="120" height="40" as="geometry"/>
                </mxCell>
                <mxCell id="537" value="" style="edgeStyle=none;html=1;fontColor=#FFFFFF;" parent="1" source="538" target="546" edge="1">
                    <mxGeometry relative="1" as="geometry"/>
                </mxCell>
                <mxCell id="538" value="SOMAR VALORES" style="whiteSpace=wrap;html=1;" parent="1" vertex="1">
                    <mxGeometry x="909.5" y="407" width="151" height="49" as="geometry"/>
                </mxCell>
                <mxCell id="539" value="" style="edgeStyle=none;html=1;endArrow=none;" parent="1" source="534" target="540" edge="1">
                    <mxGeometry relative="1" as="geometry">
                        <mxPoint x="984.5607902735562" y="287" as="sourcePoint"/>
                        <mxPoint x="984.9255319148936" y="407" as="targetPoint"/>
                    </mxGeometry>
                </mxCell>
                <mxCell id="540" value="VALOR 1; VALOR 2" style="shape=parallelogram;perimeter=parallelogramPerimeter;whiteSpace=wrap;html=1;fixedSize=1;" parent="1" vertex="1">
                    <mxGeometry x="914.5" y="327" width="139" height="36" as="geometry"/>
                </mxCell>
                <mxCell id="544" value="" style="edgeStyle=none;html=1;fontColor=#000000;endArrow=none;" parent="1" source="538" target="546" edge="1">
                    <mxGeometry relative="1" as="geometry">
                        <mxPoint x="984.8942446043166" y="456" as="sourcePoint"/>
                        <mxPoint x="984.3287769784172" y="587" as="targetPoint"/>
                    </mxGeometry>
                </mxCell>
                <mxCell id="551" value="" style="edgeStyle=none;html=1;" edge="1" parent="1" source="546" target="550">
                    <mxGeometry relative="1" as="geometry"/>
                </mxCell>
                <mxCell id="546" value="VALOR 1 + VALOR 2" style="shape=parallelogram;perimeter=parallelogramPerimeter;whiteSpace=wrap;html=1;fixedSize=1;" parent="1" vertex="1">
                    <mxGeometry x="894" y="487" width="180" height="50" as="geometry"/>
                </mxCell>
                <mxCell id="549" value="&lt;h1&gt;Exercício 3&lt;/h1&gt;" style="text;html=1;strokeColor=none;fillColor=none;spacing=5;spacingTop=-20;whiteSpace=wrap;overflow=hidden;rounded=0;fontColor=#FFFFFF;align=center;" parent="1" vertex="1">
                    <mxGeometry x="890" y="80" width="190" height="40" as="geometry"/>
                </mxCell>
                <mxCell id="553" value="" style="edgeStyle=none;html=1;" edge="1" parent="1" source="550" target="552">
                    <mxGeometry relative="1" as="geometry"/>
                </mxCell>
                <mxCell id="555" value="" style="edgeStyle=none;html=1;" edge="1" parent="1" source="550" target="554">
                    <mxGeometry relative="1" as="geometry"/>
                </mxCell>
                <mxCell id="550" value="" style="rhombus;whiteSpace=wrap;html=1;" vertex="1" parent="1">
                    <mxGeometry x="944" y="602" width="80" height="80" as="geometry"/>
                </mxCell>
                <mxCell id="566" style="edgeStyle=none;html=1;exitX=0.5;exitY=1;exitDx=0;exitDy=0;entryX=0.5;entryY=0;entryDx=0;entryDy=0;" edge="1" parent="1" source="552" target="558">
                    <mxGeometry relative="1" as="geometry"/>
                </mxCell>
                <mxCell id="552" value="&amp;lt; ou = 20" style="shape=parallelogram;perimeter=parallelogramPerimeter;whiteSpace=wrap;html=1;fixedSize=1;" vertex="1" parent="1">
                    <mxGeometry x="1078" y="620" width="132" height="44" as="geometry"/>
                </mxCell>
                <mxCell id="565" style="edgeStyle=none;html=1;exitX=0.5;exitY=1;exitDx=0;exitDy=0;entryX=0.5;entryY=0;entryDx=0;entryDy=0;" edge="1" parent="1" source="554" target="556">
                    <mxGeometry relative="1" as="geometry"/>
                </mxCell>
                <mxCell id="554" value="&amp;gt;20" style="shape=parallelogram;perimeter=parallelogramPerimeter;whiteSpace=wrap;html=1;fixedSize=1;" vertex="1" parent="1">
                    <mxGeometry x="760" y="620" width="128" height="44" as="geometry"/>
                </mxCell>
                <mxCell id="570" value="" style="edgeStyle=none;html=1;" edge="1" parent="1" source="556" target="569">
                    <mxGeometry relative="1" as="geometry"/>
                </mxCell>
                <mxCell id="556" value="VALORES MUITO ALTOS" style="whiteSpace=wrap;html=1;" vertex="1" parent="1">
                    <mxGeometry x="764" y="760" width="120" height="50" as="geometry"/>
                </mxCell>
                <mxCell id="571" style="edgeStyle=none;html=1;exitX=0.25;exitY=1;exitDx=0;exitDy=0;" edge="1" parent="1" source="558" target="569">
                    <mxGeometry relative="1" as="geometry"/>
                </mxCell>
                <mxCell id="558" value="VALOR DA SOMA" style="whiteSpace=wrap;html=1;" vertex="1" parent="1">
                    <mxGeometry x="1078" y="762" width="132" height="48" as="geometry"/>
                </mxCell>
                <mxCell id="573" value="" style="edgeStyle=none;html=1;" edge="1" parent="1" source="569" target="572">
                    <mxGeometry relative="1" as="geometry"/>
                </mxCell>
                <mxCell id="569" value="SAÍDA" style="shape=parallelogram;perimeter=parallelogramPerimeter;whiteSpace=wrap;html=1;fixedSize=1;" vertex="1" parent="1">
                    <mxGeometry x="920" y="890" width="130" height="44.76" as="geometry"/>
                </mxCell>
                <mxCell id="572" value="FIM" style="whiteSpace=wrap;html=1;" vertex="1" parent="1">
                    <mxGeometry x="940" y="1014.28" width="90" height="45.72" as="geometry"/>
                </mxCell>
            </root>
        </mxGraphModel>
    </diagram>
</mxfile>